<?xml version="1.0" encoding="UTF-8" standalone="no"?>
<!-- Created with Inkscape (http://www.inkscape.org/) -->

<svg
   xmlns:dc="http://purl.org/dc/elements/1.1/"
   xmlns:cc="http://creativecommons.org/ns#"
   xmlns:rdf="http://www.w3.org/1999/02/22-rdf-syntax-ns#"
   xmlns:svg="http://www.w3.org/2000/svg"
   xmlns="http://www.w3.org/2000/svg"
   xmlns:sodipodi="http://sodipodi.sourceforge.net/DTD/sodipodi-0.dtd"
   xmlns:inkscape="http://www.inkscape.org/namespaces/inkscape"
   width="210mm"
   height="297mm"
   viewBox="0 0 744.09448819 1052.3622047"
   id="svg2"
   version="1.1"
   inkscape:version="0.91 r13725"
   sodipodi:docname="rift1.svg">
  <defs
     id="defs4" />
  <sodipodi:namedview
     id="base"
     pagecolor="#ffffff"
     bordercolor="#666666"
     borderopacity="1.0"
     inkscape:pageopacity="0.0"
     inkscape:pageshadow="2"
     inkscape:zoom="0.175"
     inkscape:cx="1059.6083"
     inkscape:cy="96.643181"
     inkscape:document-units="px"
     inkscape:current-layer="layer2"
     showgrid="false"
     inkscape:window-width="1366"
     inkscape:window-height="746"
     inkscape:window-x="-8"
     inkscape:window-y="-8"
     inkscape:window-maximized="1" />
  <metadata
     id="metadata7">
    <rdf:RDF>
      <cc:Work
         rdf:about="">
        <dc:format>image/svg+xml</dc:format>
        <dc:type
           rdf:resource="http://purl.org/dc/dcmitype/StillImage" />
        <dc:title />
      </cc:Work>
    </rdf:RDF>
  </metadata>
  <g
     inkscape:label="bg"
     inkscape:groupmode="layer"
     id="layer1"
     style="display:none"
     sodipodi:insensitive="true">
    <rect
       style="opacity:1;fill:#000000;fill-opacity:1;stroke:none;stroke-width:5;stroke-miterlimit:4;stroke-dasharray:none;stroke-opacity:0.76470588"
       id="rect4136"
       width="697.14288"
       height="660"
       x="25.714279"
       y="18.076494" />
  </g>
  <g
     inkscape:groupmode="layer"
     id="layer2"
     inkscape:label="base">
    <path
       style="fill:#ffffff;fill-rule:evenodd;stroke:none;stroke-width:1px;stroke-linecap:butt;stroke-linejoin:miter;stroke-opacity:1"
       d="m 428.73438,57.351744 -1.07227,15.177733 -11.78515,18.03516 2.5,30.000003 -5.71485,9.46484 -0.53515,20.71485 -5.17774,20.35742 -4.10742,13.57031 -9.10742,0.71485 -14.46484,0.71484 -10.53516,-1.96484 -17.32227,-6.42969 -5.71289,-5.89258 -6.25,-5.71289 -10.89257,0.17773 8.92773,0.71485 4.10742,2.5 1.77149,2.76953 0.6875,0.75391 2.36132,2.90429 1.25,4.10742 -10.35546,10.17774 -11.78711,10.71484 -16.07032,11.78516 4.64258,-1.78516 11.07031,-7.14258 10.53711,-9.46484 14.82032,-13.57031 24.82226,11.07031 11.78516,-0.89258 11.96484,3.75 6.60742,6.07227 4.82032,37.14258 -2.5,8.92773 -0.35743,21.25 -4.82031,5.35742 -2.5,14.28516 0.89258,11.25 -1.60742,14.82226 2.32226,7.5 -3.39257,10.35743 0,5.15234 -8.72461,5.15625 -11.86914,3.0293 -23.48633,-0.25196 -15.65625,12.12305 -3.53711,0 -8.83789,9.34375 -12.87891,2.52539 -22.98242,1.26172 -13.38281,-3.0293 -27.02344,13.88867 -11.11133,0.50586 -19.94922,12.37305 -9.34375,-6.06055 -10.10156,-13.38476 -6.31445,-8.08008 -4.79883,-4.54687 -7.32227,-1.00977 -4.54687,-2.77734 4.29297,5.05078 7.07226,0.5039 11.61719,15.91016 10.60547,14.14258 8.08203,6.3125 -2.7793,6.82031 -10.10156,6.56445 -3.0293,9.59766 -15.91015,5.30273 16.66797,-3.78711 3.78711,-7.32421 12.375,-12.12305 0.75781,-4.29297 20.45508,-12.37305 12.8789,0 23.48633,-13.38476 21.21289,2.01953 28.53711,-3.78711 29.54688,-21.9707 18.18359,-1.26368 17.92969,-2.01953 8.83984,-4.79882 13.88867,23.48632 1.51563,28.28321 5.05078,5.30468 1.00976,6.56641 6.56641,5.30273 -5.30273,-6.31445 -1.26368,-8.33398 -3.03125,-3.78711 -1.76757,-30.55664 -16.89258,-27.48243 -0.62891,-3.25195 3.39258,-10.89258 -2.5,-7.85742 2.85742,-14.46484 -1.25,-14.46289 2.5,-8.21485 5,-5.71484 0,-7.85742 2.32031,-0.53516 8.92969,-0.35742 3.57031,-2.5 10.53711,3.21484 17.85743,-2.5 8.57031,1.42774 -8.21485,-3.21289 -17.5,2.14258 -11.78515,-3.57227 -3.92774,2.85742 -7.67968,-0.53515 -1.78516,-9.64258 2.14258,-12.67969 -1.78516,-30 -3.75,-14.46289 -1.96484,-6.96484 9.10742,-35.17969 0.17773,-19.64258 4.82227,-9.10742 4.10742,1.60742 8.21485,-1.07031 -8.03711,0.17773 -4.10743,-1.96484 -2.85546,-29.462893 10.71289,-16.60742 0.71484,-16.785163 z"
       id="path4167"
       inkscape:connector-curvature="0"
       inkscape:export-xdpi="242.43613"
       inkscape:export-ydpi="242.43613"
       inkscape:export-filename="C:\Users\7yl4r\Documents\cell-rpg\android\assets\rift1.png" />
  </g>
</svg>
